<?xml version="1.0" standalone="no"?>
<!DOCTYPE svg PUBLIC "-//W3C//DTD SVG 1.1//EN" "http://www.w3.org/Graphics/SVG/1.1/DTD/svg11.dtd" >
<svg xmlns="http://www.w3.org/2000/svg" xmlns:xlink="http://www.w3.org/1999/xlink" version="1.1">
<metadata>
Created by FontForge 20170731 at Wed Jul 12 03:59:52 2017
 By Aleksey,,,
Copyright (c) 2017 by Vladimir Nikolic. All rights reserved.
</metadata>
<defs>
<font id="Cataclysmo" horiz-adv-x="306" >
  <font-face 
    font-family="Cataclysmo"
    font-weight="400"
    font-stretch="normal"
    units-per-em="1000"
    panose-1="0 0 0 0 0 0 0 0 0 0"
    ascent="750"
    descent="-250"
    x-height="696"
    cap-height="698"
    bbox="15.4286 -46 366 738"
    underline-thickness="50"
    underline-position="-200"
    unicode-range="U+000D-20AC"
  />
<missing-glyph horiz-adv-x="235" 
 />
    <glyph glyph-name=".notdef" horiz-adv-x="235" 
 />
    <glyph glyph-name=".null" horiz-adv-x="0" 
 />
    <glyph glyph-name="nonmarkingreturn" horiz-adv-x="333" 
 />
    <glyph glyph-name="NULL" horiz-adv-x="0" 
 />
    <glyph glyph-name="NULL" horiz-adv-x="0" 
 />
    <glyph glyph-name="CR" unicode="&#xd;" horiz-adv-x="235" 
 />
    <glyph glyph-name="space" unicode=" " horiz-adv-x="235" 
 />
    <glyph glyph-name="exclam" unicode="!" horiz-adv-x="187" 
d="M137 73q9 -17 3 -36t-24 -28t-37 -2.5t-28 23.5q-9 18 -2.5 37t24.5 28q17 9 36 2.5t28 -24.5zM131 692v-538h-78v538h78z" />
    <glyph glyph-name="quotedbl" unicode="&#x22;" horiz-adv-x="307" 
d="M109 712q25 -14 25 -43t-25 -43l-70 -48v85q-4 29 20 46t50 3zM244 709q26 -13 26 -43t-26 -43l-70 -48v85q-4 29 20 46t50 3z" />
    <glyph glyph-name="numbersign" unicode="#" horiz-adv-x="370" 
d="M350 257v-82h-41v-102h-82v102h-82v-102h-82v102h-41v82h41v82h-41v82h41v102h82v-102h82v102h82v-102h41v-82h-41v-82h41zM227 257v82h-82v-82h82z" />
    <glyph glyph-name="dollar" unicode="$" horiz-adv-x="315" 
d="M198 534v79q0 1 -4 1h-21v-205h24q50 0 74 -44q9 -18 9 -58v-207q0 -53 -25 -77q-12 -11 -27 -16.5t-24.5 -6t-30.5 -0.5v-46h-34v46h-25q-19 0 -39 11q-40 24 -40 71v181l-1 2q0 1 1 1h79h2v-3v-180q0 -1 5 -1h18v244q-33 0 -48 5q-37 13 -51 49q-5 13 -5 39v186
q0 46 26 68q23 22 74 22h4v43h34v-42q36 0 51 -5q46 -15 54 -61q2 -7 2 -50v-44v-2q0 -2 -1 -2h-80q-1 0 -1 2zM174 327h-1v-245h23h2v240v5h-24zM139 409v205h-22q-1 0 -1 -4v-197q0 -4 1 -4h22z" />
    <glyph glyph-name="quotesingle" unicode="'" horiz-adv-x="123" 
d="M93 720q25 -14 25 -43t-25 -43l-70 -48v85q-4 29 20 46t50 3z" />
    <glyph glyph-name="parenleft" unicode="(" horiz-adv-x="195" 
d="M40 85v529q0 45 7 61q11 26 39 41q17 8 56 8h11v-82h-31v-585h31v-81h-9q-41 0 -58 8q-29 14 -40 44q-6 14 -6 57z" />
    <glyph glyph-name="parenright" unicode=")" horiz-adv-x="185" 
d="M149 606v-529q0 -44 -7 -60q-12 -28 -39 -41q-17 -8 -57 -8h-10v81h31v585h-31v82h9q41 0 58 -8q29 -14 40 -45q6 -14 6 -57z" />
    <glyph glyph-name="plus" unicode="+" horiz-adv-x="396" 
d="M358 352v-82h-120v-119h-82v119h-120v82h120v120h82v-120h120z" />
    <glyph glyph-name="comma" unicode="," horiz-adv-x="129" 
d="M86 95q26 -13 26 -43t-26 -43l-70 -48v85q-4 29 20 46t50 3z" />
    <glyph glyph-name="hyphen" unicode="-" horiz-adv-x="226" 
d="M16 267v82h194v-82h-194z" />
    <glyph glyph-name="period" unicode="." horiz-adv-x="146" 
d="M118 72q9 -17 3 -36t-24 -28t-37 -2.5t-28 23.5q-9 18 -2.5 37t24.5 28q17 9 36 2.5t28 -24.5z" />
    <glyph glyph-name="zero" unicode="0" horiz-adv-x="310" 
d="M279 180q0 -102 -1 -109q-5 -28 -25.5 -47.5t-48.5 -21.5h-53q-45 0 -54 2q-28 6 -45.5 28t-17.5 51v436q0 109 3 119q7 24 26.5 40.5t44.5 18.5h54q44 0 53 -2q28 -6 46 -28.5t18 -51.5v-435zM197 83v434l-65 -434h65zM115 171l67 444h-67v-444z" />
    <glyph glyph-name="one" unicode="1" horiz-adv-x="183" 
d="M152 697v-695h-82v409h-41l41 286h82z" />
    <glyph glyph-name="two" unicode="2" horiz-adv-x="310" 
d="M280 87v-82h-82h-82h-82v82v103v104q1 27 17.5 47.5t42.5 28.5q11 3 52 3h52v245h-82v-82h-82v56q0 38 5 53q8 26 34 43q19 12 52 12h61q30 0 47 -8q27 -13 39 -39q8 -17 8 -52v-219q0 -32 -14 -54q-14 -23 -41 -32q-13 -5 -49 -5h-60v-204h82h82z" />
    <glyph glyph-name="three" unicode="3" horiz-adv-x="313" 
d="M283 289v-64v-94q0 -3 0.5 -21.5t0 -26t-3.5 -21t-9 -23.5q-23 -40 -80 -40q-83 0 -94 3q-23 6 -39 24t-20 42q-1 9 -1 94h82v-81h82v239h-96v83h96v209h-82v-82h-82v45q0 37 1 44q3 49 50 69q14 6 37 6h51q22 0 31.5 -0.5t24.5 -6t27 -17.5t17.5 -27t6 -24.5t0.5 -31.5
v-89v-54q-2 -19 -10 -33q-23 -44 -72 -44q24 0 44.5 -13.5t30.5 -35.5q5 -12 7 -29z" />
    <glyph glyph-name="four" unicode="4" horiz-adv-x="294" 
d="M269 372v-82h-41v-286h-81v286h-123v41v368h82v-327h41v61h81v-61h41z" />
    <glyph glyph-name="five" unicode="5" horiz-adv-x="304" 
d="M275 101q0 -35 -8 -53q-14 -27 -39 -38q-15 -8 -46 -8h-62q-32 0 -52 12q-24 15 -34 43q-4 11 -4 53v55h81v-81h82v245h-82h-81v82v204v82h224v-82h-143v-204h61q35 0 48 -5q26 -8 42 -32q13 -20 13 -54v-219z" />
    <glyph glyph-name="six" unicode="6" horiz-adv-x="293" 
d="M270 328v-245q0 -35 -24 -58.5t-58 -23.5h-81q-35 0 -58.5 23.5t-23.5 58.5v531q0 34 24 58t58 24h163v-82h-163v-204h81q34 0 58 -24t24 -58zM188 83v245h-81v-245h81z" />
    <glyph glyph-name="seven" unicode="7" 
d="M290 697l-122 -695h-82l102 613h-163v82h265z" />
    <glyph glyph-name="eight" unicode="8" horiz-adv-x="303" 
d="M275 323v-243q0 -34 -23.5 -58t-57.5 -24h-82q-34 0 -58 24t-24 58v243q0 34 24 58t58 24q-34 0 -58 24t-24 58v135q0 34 24 57.5t58 23.5h82q34 0 57.5 -23.5t23.5 -57.5v-135q0 -34 -23.5 -58t-57.5 -24q34 0 57.5 -24t23.5 -58zM194 80v243h-82v-243h82zM194 487v135
h-82v-135h82z" />
    <glyph glyph-name="nine" unicode="9" horiz-adv-x="302" 
d="M271 613v-531q0 -34 -24 -58t-58 -24h-164v82h164v204h-82q-34 0 -58 24t-24 58v245q0 34 24 58t58 24h82q34 0 58 -24t24 -58zM189 368v245h-82v-245h82z" />
    <glyph glyph-name="colon" unicode=":" horiz-adv-x="149" 
d="M114 171q9 -17 3 -36t-24 -28t-37 -2.5t-28 23.5q-9 18 -2.5 37t24.5 28q17 9 36 2.5t28 -24.5zM112 564q9 -17 3 -36t-24 -28t-37 -2.5t-28 23.5q-9 18 -2.5 37t24.5 28q17 9 36 2.5t28 -24.5z" />
    <glyph glyph-name="semicolon" unicode=";" horiz-adv-x="149" 
d="M112 564q9 -17 3 -36t-24 -28t-37 -2.5t-28 23.5q-9 18 -2.5 37t24.5 28q17 9 36 2.5t28 -24.5zM99 200q25 -14 25 -43t-25 -43l-70 -48v85q-4 29 20 46t50 3z" />
    <glyph glyph-name="question" unicode="?" horiz-adv-x="296" 
d="M188 73q9 -17 2.5 -36t-24.5 -28q-17 -9 -36 -2.5t-28 23.5q-9 18 -3 37t24 28t37 2.5t28 -24.5zM268 429q0 -49 -1 -73q0 -16 -5 -26q-9 -24 -30 -38.5t-46 -14.5v-123h-62h-20v123q0 34 24 57.5t58 23.5v246h-82v-82h-82q0 91 2 99q5 25 23.5 42.5t44.5 21.5q9 1 49 1
q42 0 51 -1q26 -2 45.5 -17.5t26.5 -40.5q4 -13 4 -39v-60v-99z" />
    <glyph glyph-name="A" unicode="A" horiz-adv-x="302" 
d="M277 625v-79v-160v-303v-75q0 -7 -2 -7h-9h-19h-31h-7h-9h-2h-2v5v19v37v79v160v6q0 1 -3 1h-8h-16h-31h-16h-8v-5v-5v-44v-164v-70v-17q0 -1 -0.5 -1t-0.5 -1h-6h-9h-35h-17h-8h-5q-1 0 -1 3v34v73v162v303q0 5 -0.5 15.5t0 16.5t1 14.5t3 16.5t6.5 15q18 35 60 42
q9 1 74 1q48 0 70 -18q27 -20 31 -54zM196 390v225h-82v-225h82z" />
    <glyph glyph-name="B" unicode="B" horiz-adv-x="317" 
d="M284 226v-143q0 -34 -23.5 -58t-57.5 -24h-82h-82v695h82h82q34 0 57.5 -23.5t23.5 -57.5v-175q0 -34 -23.5 -57.5t-57.5 -23.5q34 0 57.5 -24t23.5 -58v-51zM203 83v225h-82v-225h82zM203 405v210h-82v-210h82z" />
    <glyph glyph-name="C" unicode="C" horiz-adv-x="310" 
d="M269 655q11 -19 11 -69v-9v-3q1 -1 -1 -1h-4h-18h-36h-18h-3q-2 -1 -2 0v5v9v18v4v5h-9h-72v-290v-151v-70v-17v-4h4h9h33h18h10q7 0 7 1v36v37v4q0 4 1 4h9h19h36h9h4q4 0 4 -1v-18v-72q-5 -39 -38 -60q-20 -13 -69 -13q-60 0 -70 1q-39 8 -58 42q-10 17 -10 65v70v129
v23v141v74q0 6 -0.5 18t-0.5 17q0 26 1 39q3 41 35 62q21 14 68 14h71q40 -6 60 -40z" />
    <glyph glyph-name="D" unicode="D" horiz-adv-x="316" 
d="M275 644q6 -17 6 -57v-238v-238q0 -43 -7 -61q-14 -29 -39 -41q-17 -8 -57 -8h-1h-60h-82v82v41v409v81v82h82h41h19q41 0 58 -8q29 -14 40 -44zM199 83v531h-82v-81v-409v-41h82z" />
    <glyph glyph-name="E" unicode="E" horiz-adv-x="294" 
d="M271 84v-82h-164h-82v696h82h164v-82h-164v-225h143v-82h-143v-225h164z" />
    <glyph glyph-name="F" unicode="F" 
d="M277 699v-82h-163v-225h143v-82h-143v-225v-82h-82v696h82h163z" />
    <glyph glyph-name="G" unicode="G" horiz-adv-x="318" 
d="M279 630q2 -9 2 -39v-10v-5q0 -3 -2 -3h-20h-36h-18h-4q-2 0 -2 2v9v18v9q0 3 -7 3h-36h-35q-4 0 -4 -2v-6v-12v-24v-94v-231v-89v-56v-14v-3q0 -1 3 -1h6h28h27h14h3q1 0 1 3v8v224h-62v82h62h81q1 0 1 -3v-5v-24v-43v-145v-90q0 -46 -31 -71q-23 -18 -75 -18
q-67 0 -78 3q-43 10 -58 53q-4 14 -4 72v78v170v168q0 74 1 83q6 37 37 55q7 5 14.5 8t16.5 4t14 1.5t16.5 0t15.5 -0.5q64 0 78 -5q41 -16 51 -60z" />
    <glyph glyph-name="H" unicode="H" horiz-adv-x="330" 
d="M227 694h80v-696h-80v320h-117v-320h-78v696h78v-298h117v298z" />
    <glyph glyph-name="I" unicode="I" horiz-adv-x="148" 
d="M109 698v-694h-78v694h78z" />
    <glyph glyph-name="J" unicode="J" horiz-adv-x="226" 
d="M185 699q1 0 1 -6v-6v-13v-103v-211v-210v-52q0 -31 -9 -49q-13 -24 -37 -37q-18 -8 -54 -8h-52h-7q-5 0 -5 1v13v27v26v13q0 2 5 2h7h52h17q1 0 1 5v7v24v51v106v420h54h27z" />
    <glyph glyph-name="K" unicode="K" horiz-adv-x="316" 
d="M178 411l129 -410h-81l-97 299l-6 -12v-80v-207h-81v696h81v-266l82 266h82z" />
    <glyph glyph-name="L" unicode="L" horiz-adv-x="278" 
d="M263 80v-82h-246v696h82v-614h164z" />
    <glyph glyph-name="M" unicode="M" horiz-adv-x="385" 
d="M357 267v-265h-82v398l-81 -287l-82 287v-398h-82v695h82l82 -286l81 286h82v-276v-154z" />
    <glyph glyph-name="N" unicode="N" horiz-adv-x="370" 
d="M339 697v-695h-82l-143 442v-442h-82v695h82l143 -442v442h82z" />
    <glyph glyph-name="O" unicode="O" horiz-adv-x="300" 
d="M272 180q0 -104 -1 -110q-5 -28 -25 -47t-48 -21q-9 -1 -54 -1q-44 0 -53 2q-28 7 -46 29t-18 51v436q0 108 3 119q7 24 26.5 40t45.5 18q8 1 53 1t54 -2q28 -7 45.5 -29.5t17.5 -50.5v-435zM190 83v532h-81v-532h81z" />
    <glyph glyph-name="P" unicode="P" 
d="M256 668q7 -8 11.5 -16t6.5 -19.5t2.5 -16.5t0 -21t-0.5 -18v-130v-80q0 -35 -7 -52q-23 -48 -75 -48h-43h-22h-11h-5q-1 0 -1 -2v-21v-40v-81v-82v-20v-10v-5v-3q2 -2 0 -2h-1h-5h-11h-22h-22h-10h-6h-3h-1v3v21v452v120v62v31v4v3v0h7h113q5 0 18.5 0.5t19.5 0t17 -1.5
t18 -4t16 -9t16 -15zM194 349v266h-82v-266h82z" />
    <glyph glyph-name="Q" unicode="Q" horiz-adv-x="309" 
d="M258 58l29 -57h-92l-72 143l72 41zM259 665q6 -8 10 -16t5.5 -18.5t2 -16.5t0 -19.5t-0.5 -17.5v-109v-201v-105q0 -91 -1 -96l-80 160v389h-82v-471v-20v-41h20l41 -82h-50q-30 0 -48 9q-45 23 -45 84v201v202v113q0 50 39 74q20 12 47 12h50q26 0 36 -0.5t27 -8
t29 -22.5z" />
    <glyph glyph-name="R" unicode="R" horiz-adv-x="321" 
d="M286 414q0 -34 -1 -41q-5 -29 -28 -49t-53 -20q6 -24 16.5 -85t16.5 -85q3 -12 8.5 -40.5t8.5 -40.5q2 -12 8 -36q0 -1 1 -4t1 -5v-2l1 -2q1 -2 -3 -2h-18h-37h-19h-4q-1 0 -1 5l-3 9q-3 12 -8 40t-8 40q-6 24 -17 85.5t-16 85.5q-4 13 -5 23q-1 3 -3 11q0 1 -1 3
q-1 5 -1 -2l1 -12v-22v-44v-212q0 -1 1 -4q1 -6 -3 -6h-3h-6h-11h-22h-22h-11h-3h-1h-1v3v6v21v210v239v137v60v15v4q0 1 1 1v0h7h13h25h52h69q38 -2 61 -31q18 -23 18 -65v-86v-108v-4v1v9zM204 386v230h-82v-230h82z" />
    <glyph glyph-name="S" unicode="S" horiz-adv-x="315" 
d="M278 584v-33v-11v-2q0 -2 -1 -2h-7h-28h-28h-14h-3q-1 0 -1 2v5v42v21v11q0 1 -4 1h-5h-64h-8q-1 0 -1 -4v-4v-19v-45v-125v-4q0 -4 1 -4h5h11h21h43q50 0 74 -44q9 -18 9 -58v-29v-178q0 -53 -25 -77q-12 -12 -28.5 -17t-25 -5.5t-32.5 -0.5h-55q-19 0 -39 11
q-40 24 -40 71v168v11v2l-1 2q0 1 1 1h5h21h42h11h2v-3v-7v-27v-54v-92q0 -1 5 -1h6h12h24h24h6h3h2v11v171v43v10v5v5h-24q-70 0 -83 4q-37 13 -51 49q-5 13 -5 39v74v112q0 46 26 68q23 22 74 22q1 0 24.5 1t39 0t25.5 -5q46 -15 54 -61q2 -7 2 -50z" />
    <glyph glyph-name="T" unicode="T" horiz-adv-x="305" 
d="M271 695v-82h-82v-614h-82v614h-81v82h245z" />
    <glyph glyph-name="U" unicode="U" horiz-adv-x="311" 
d="M277 142q0 -4 0.5 -21t0.5 -26.5t-2.5 -23.5t-7.5 -23q-22 -45 -72 -45h-46q-38 0 -46 1q-53 7 -68 57q-4 13 -4 89v96v371v82h82v-307v-82v-225h82v225v82v307h81v-371v-186z" />
    <glyph glyph-name="V" unicode="V" horiz-adv-x="380" 
d="M352 699l-122 -696h-82l-123 696h82l82 -464l82 464h81z" />
    <glyph glyph-name="W" unicode="W" horiz-adv-x="401" 
d="M366 697v-695h-81l-82 286l-82 -286h-82v326v252v117h82v-398l82 287l82 -287v398h81z" />
    <glyph glyph-name="X" unicode="X" horiz-adv-x="341" 
d="M318 697l-102 -348l102 -348h-82l-61 209l-62 -209h-81l102 348l-102 348h81l62 -209l61 209h82z" />
    <glyph glyph-name="Y" unicode="Y" horiz-adv-x="325" 
d="M303 696l-103 -327v-369h-81v369l-103 327h82l62 -197l61 197h82z" />
    <glyph glyph-name="Z" unicode="Z" 
d="M276 84v-82h-246v82l164 531h-164v82h246v-82l-164 -531h164z" />
    <glyph glyph-name="a" unicode="a" horiz-adv-x="302" 
d="M277 625v-79v-160v-303v-75q0 -7 -2 -7h-9h-19h-31h-7h-9h-2h-2v5v19v37v79v160v6q0 1 -3 1h-8h-16h-31h-16h-8v-5v-5v-44v-164v-70v-17q0 -1 -0.5 -1t-0.5 -1h-6h-9h-35h-17h-8h-5q-1 0 -1 3v34v73v162v303q0 5 -0.5 15.5t0 16.5t1 14.5t3 16.5t6.5 15q18 35 60 42
q9 1 74 1q48 0 70 -18q27 -20 31 -54zM196 390v225h-82v-225h82z" />
    <glyph glyph-name="b" unicode="b" horiz-adv-x="317" 
d="M284 226v-143q0 -34 -23.5 -58t-57.5 -24h-82h-82v695h82h82q34 0 57.5 -23.5t23.5 -57.5v-175q0 -34 -23.5 -57.5t-57.5 -23.5q34 0 57.5 -24t23.5 -58v-51zM203 83v225h-82v-225h82zM203 405v210h-82v-210h82z" />
    <glyph glyph-name="c" unicode="c" horiz-adv-x="310" 
d="M269 655q11 -19 11 -69v-9v-3q1 -1 -1 -1h-4h-18h-36h-18h-3q-2 -1 -2 0v5v9v18v4v5h-9h-72v-290v-151v-70v-17v-4h4h9h33h18h10q7 0 7 1v36v37v4q0 4 1 4h9h19h36h9h4q4 0 4 -1v-18v-72q-5 -39 -38 -60q-20 -13 -69 -13q-60 0 -70 1q-39 8 -58 42q-10 17 -10 65v70v129
v23v141v74q0 6 -0.5 18t-0.5 17q0 26 1 39q3 41 35 62q21 14 68 14h71q40 -6 60 -40z" />
    <glyph glyph-name="d" unicode="d" horiz-adv-x="316" 
d="M275 644q6 -17 6 -57v-238v-238q0 -43 -7 -61q-14 -29 -39 -41q-17 -8 -57 -8h-1h-60h-82v82v41v409v81v82h82h41h19q41 0 58 -8q29 -14 40 -44zM199 83v531h-82v-81v-409v-41h82z" />
    <glyph glyph-name="e" unicode="e" horiz-adv-x="294" 
d="M271 84v-82h-164h-82v696h82h164v-82h-164v-225h143v-82h-143v-225h164z" />
    <glyph glyph-name="f" unicode="f" 
d="M277 699v-82h-163v-225h143v-82h-143v-225v-82h-82v696h82h163z" />
    <glyph glyph-name="g" unicode="g" horiz-adv-x="318" 
d="M279 630q2 -9 2 -39v-10v-5q0 -3 -2 -3h-20h-36h-18h-4q-2 0 -2 2v9v18v9q0 3 -7 3h-36h-35q-4 0 -4 -2v-6v-12v-24v-94v-231v-89v-56v-14v-3q0 -1 3 -1h6h28h27h14h3q1 0 1 3v8v224h-62v82h62h81q1 0 1 -3v-5v-24v-43v-145v-90q0 -46 -31 -71q-23 -18 -75 -18
q-67 0 -78 3q-43 10 -58 53q-4 14 -4 72v78v170v168q0 74 1 83q6 37 37 55q7 5 14.5 8t16.5 4t14 1.5t16.5 0t15.5 -0.5q64 0 78 -5q41 -16 51 -60z" />
    <glyph glyph-name="h" unicode="h" horiz-adv-x="330" 
d="M227 694h80v-696h-80v320h-117v-320h-78v696h78v-298h117v298z" />
    <glyph glyph-name="i" unicode="i" horiz-adv-x="148" 
d="M109 698v-694h-78v694h78z" />
    <glyph glyph-name="j" unicode="j" horiz-adv-x="226" 
d="M185 699q1 0 1 -6v-6v-13v-103v-211v-210v-52q0 -31 -9 -49q-13 -24 -37 -37q-18 -8 -54 -8h-52h-7q-5 0 -5 1v13v27v26v13q0 2 5 2h7h52h17q1 0 1 5v7v24v51v106v420h54h27z" />
    <glyph glyph-name="k" unicode="k" horiz-adv-x="316" 
d="M178 411l129 -410h-81l-97 299l-6 -12v-80v-207h-81v696h81v-266l82 266h82z" />
    <glyph glyph-name="l" unicode="l" horiz-adv-x="278" 
d="M263 80v-82h-246v696h82v-614h164z" />
    <glyph glyph-name="m" unicode="m" horiz-adv-x="385" 
d="M357 267v-265h-82v398l-81 -287l-82 287v-398h-82v695h82l82 -286l81 286h82v-276v-154z" />
    <glyph glyph-name="n" unicode="n" horiz-adv-x="370" 
d="M339 697v-695h-82l-143 442v-442h-82v695h82l143 -442v442h82z" />
    <glyph glyph-name="o" unicode="o" horiz-adv-x="300" 
d="M272 180q0 -104 -1 -110q-5 -28 -25 -47t-48 -21q-9 -1 -54 -1q-44 0 -53 2q-28 7 -46 29t-18 51v436q0 108 3 119q7 24 26.5 40t45.5 18q8 1 53 1t54 -2q28 -7 45.5 -29.5t17.5 -50.5v-435zM190 83v532h-81v-532h81z" />
    <glyph glyph-name="p" unicode="p" 
d="M256 668q7 -8 11.5 -16t6.5 -19.5t2.5 -16.5t0 -21t-0.5 -18v-130v-80q0 -35 -7 -52q-23 -48 -75 -48h-43h-22h-11h-5q-1 0 -1 -2v-21v-40v-81v-82v-20v-10v-5v-3q2 -2 0 -2h-1h-5h-11h-22h-22h-10h-6h-3h-1v3v21v452v120v62v31v4v3v0h7h113q5 0 18.5 0.5t19.5 0t17 -1.5
t18 -4t16 -9t16 -15zM194 349v266h-82v-266h82z" />
    <glyph glyph-name="q" unicode="q" horiz-adv-x="309" 
d="M258 58l29 -57h-92l-72 143l72 41zM259 665q6 -8 10 -16t5.5 -18.5t2 -16.5t0 -19.5t-0.5 -17.5v-109v-201v-105q0 -91 -1 -96l-80 160v389h-82v-471v-20v-41h20l41 -82h-50q-30 0 -48 9q-45 23 -45 84v201v202v113q0 50 39 74q20 12 47 12h50q26 0 36 -0.5t27 -8
t29 -22.5z" />
    <glyph glyph-name="r" unicode="r" horiz-adv-x="321" 
d="M286 414q0 -34 -1 -41q-5 -29 -28 -49t-53 -20q6 -24 16.5 -85t16.5 -85q3 -12 8.5 -40.5t8.5 -40.5q2 -12 8 -36q0 -1 1 -4t1 -5v-2l1 -2q1 -2 -3 -2h-18h-37h-19h-4q-1 0 -1 5l-3 9q-3 12 -8 40t-8 40q-6 24 -17 85.5t-16 85.5q-4 13 -5 23q-1 3 -3 11q0 1 -1 3
q-1 5 -1 -2l1 -12v-22v-44v-212q0 -1 1 -4q1 -6 -3 -6h-3h-6h-11h-22h-22h-11h-3h-1h-1v3v6v21v210v239v137v60v15v4q0 1 1 1v0h7h13h25h52h69q38 -2 61 -31q18 -23 18 -65v-86v-108v-4v1v9zM204 386v230h-82v-230h82z" />
    <glyph glyph-name="s" unicode="s" horiz-adv-x="315" 
d="M278 584v-33v-11v-2q0 -2 -1 -2h-7h-28h-28h-14h-3q-1 0 -1 2v5v42v21v11q0 1 -4 1h-5h-64h-8q-1 0 -1 -4v-4v-19v-45v-125v-4q0 -4 1 -4h5h11h21h43q50 0 74 -44q9 -18 9 -58v-29v-178q0 -53 -25 -77q-12 -12 -28.5 -17t-25 -5.5t-32.5 -0.5h-55q-19 0 -39 11
q-40 24 -40 71v168v11v2l-1 2q0 1 1 1h5h21h42h11h2v-3v-7v-27v-54v-92q0 -1 5 -1h6h12h24h24h6h3h2v11v171v43v10v5v5h-24q-70 0 -83 4q-37 13 -51 49q-5 13 -5 39v74v112q0 46 26 68q23 22 74 22q1 0 24.5 1t39 0t25.5 -5q46 -15 54 -61q2 -7 2 -50z" />
    <glyph glyph-name="t" unicode="t" horiz-adv-x="305" 
d="M271 695v-82h-82v-614h-82v614h-81v82h245z" />
    <glyph glyph-name="u" unicode="u" horiz-adv-x="311" 
d="M277 142q0 -4 0.5 -21t0.5 -26.5t-2.5 -23.5t-7.5 -23q-22 -45 -72 -45h-46q-38 0 -46 1q-53 7 -68 57q-4 13 -4 89v96v371v82h82v-307v-82v-225h82v225v82v307h81v-371v-186z" />
    <glyph glyph-name="v" unicode="v" horiz-adv-x="380" 
d="M352 699l-122 -696h-82l-123 696h82l82 -464l82 464h81z" />
    <glyph glyph-name="w" unicode="w" horiz-adv-x="401" 
d="M366 697v-695h-81l-82 286l-82 -286h-82v326v252v117h82v-398l82 287l82 -287v398h81z" />
    <glyph glyph-name="x" unicode="x" horiz-adv-x="341" 
d="M318 697l-102 -348l102 -348h-82l-61 209l-62 -209h-81l102 348l-102 348h81l62 -209l61 209h82z" />
    <glyph glyph-name="y" unicode="y" horiz-adv-x="325" 
d="M303 696l-103 -327v-369h-81v369l-103 327h82l62 -197l61 197h82z" />
    <glyph glyph-name="z" unicode="z" 
d="M276 84v-82h-246v82l164 531h-164v82h246v-82l-164 -531h164z" />
    <glyph glyph-name="Euro" unicode="&#x20ac;" horiz-adv-x="310" 
d="M217 576v36v4h-82v-202h132v-36h-132v-56h132v-36h-132v-198q0 -3 1 -3h73q8 0 8 1v77q0 3 1 3h77h4v-18v-72q-5 -39 -38 -60q-19 -13 -69 -13q-65 0 -70 1q-38 6 -58 42q-10 17 -10 64v176h-34v36h34v56h-34v36h34v134q0 6 -0.5 17.5t-0.5 17.5q0 26 1 39q3 39 35 62
q21 14 68 14q67 0 71 -1q40 -5 60 -39q11 -19 11 -70v-11q0 -2 -1 -2h-79q-2 0 -2 1z" />
    <glyph glyph-name="space.001" horiz-adv-x="0" 
 />
  </font>
</defs>
</svg>
